<svg width="24" height="24" viewBox="0 0 24 24" fill="none" xmlns="http://www.w3.org/2000/svg">
<g id="Bin">
<g id="Vector">
<path d="M3.771 5.509C3.345 5.509 3 5.902 3 6.386C3 6.87 3.345 7.263 3.77 7.263H20.229C20.655 7.263 21 6.87 21 6.386C21 5.902 20.655 5.509 20.228 5.509H17.658C17.128 5.494 16.568 5.11 16.388 4.544L16.358 4.444L16.244 4.053L16.2402 4.04012C16.1708 3.80454 16.1105 3.59966 16.026 3.416C15.689 2.677 15.062 2.164 14.339 2.033C14.156 2 13.962 2 13.739 2H10.261C10.039 2 9.845 2 9.661 2.033C8.938 2.164 8.312 2.677 7.974 3.416C7.88867 3.60153 7.82796 3.80971 7.75865 4.04736L7.757 4.053L7.642 4.444L7.612 4.544C7.432 5.11 6.965 5.493 6.436 5.509H3.771Z" fill="#3F3D43"/>
<path fill-rule="evenodd" clip-rule="evenodd" d="M12.404 22H11.596C8.81298 22 7.42198 22 6.51698 21.114C5.61258 20.2296 5.5201 18.7769 5.33535 15.8748L5.06798 11.681C4.96698 10.104 4.91698 9.31601 5.37098 8.81601C5.82398 8.31601 6.59098 8.31601 8.12398 8.31601H15.876C17.409 8.31601 18.175 8.31601 18.629 8.81601C19.082 9.31501 19.032 10.104 18.932 11.681L18.6647 15.8741C18.4799 18.7767 18.3874 20.2285 17.484 21.114C16.578 22 15.187 22 12.404 22ZM9.42598 11.482C9.83798 11.439 10.206 11.755 10.246 12.189L10.746 17.452C10.787 17.886 10.487 18.273 10.074 18.316C9.66198 18.359 9.29398 18.043 9.25398 17.609L8.75398 12.346C8.71298 11.912 9.01298 11.525 9.42598 11.482ZM15.246 12.346C15.288 11.912 14.987 11.525 14.575 11.482C14.164 11.439 13.794 11.755 13.754 12.189L13.254 17.452C13.213 17.886 13.513 18.273 13.926 18.316C14.337 18.359 14.706 18.043 14.746 17.609L15.246 12.346Z" fill="#3F3D43"/>
</g>
</g>
</svg>
